<?xml version="1.0" encoding="iso-8859-1"?>
<!-- Generator: Adobe Illustrator 19.0.0, SVG Export Plug-In . SVG Version: 6.00 Build 0)  -->
<svg version="1.1" id="Layer_1" xmlns="http://www.w3.org/2000/svg" xmlns:xlink="http://www.w3.org/1999/xlink" x="0px" y="0px"
	 viewBox="0 0 512 512" style="enable-background:new 0 0 512 512;" xml:space="preserve">
<g>
	<g>
		<g>
			<path d="M256,234.667c-11.776,0-21.333,9.557-21.333,21.333s9.557,21.333,21.333,21.333s21.333-9.557,21.333-21.333
				S267.776,234.667,256,234.667z" fill="#eba904"/>
			<path d="M256,170.667c-47.061,0-85.333,38.272-85.333,85.333s38.272,85.333,85.333,85.333s85.333-38.272,85.333-85.333
				S303.061,170.667,256,170.667z M256,298.667c-23.531,0-42.667-19.136-42.667-42.667s19.136-42.667,42.667-42.667
				s42.667,19.136,42.667,42.667S279.531,298.667,256,298.667z" fill="#eba904"/>
			<path d="M490.667,192h-31.317c-3.755-11.861-8.533-23.403-14.357-34.475l22.187-22.208c8.341-8.341,8.341-21.845,0-30.165
				l-60.331-60.331c-8.32-8.341-21.824-8.341-30.165,0l-22.208,22.208C343.403,61.205,331.883,56.427,320,52.651V21.333
				C320,9.536,310.464,0,298.667,0h-85.333C201.536,0,192,9.536,192,21.333v31.317c-11.883,3.776-23.403,8.555-34.475,14.379
				l-22.208-22.208c-8.341-8.341-21.845-8.341-30.165,0l-60.331,60.331c-8.341,8.32-8.341,21.824,0,30.165l22.187,22.208
				C61.184,168.597,56.405,180.139,52.651,192H21.333C9.536,192,0,201.536,0,213.333v85.333C0,310.464,9.536,320,21.333,320h31.317
				c3.755,11.861,8.533,23.403,14.357,34.475l-22.187,22.208c-8.341,8.341-8.341,21.845,0,30.165l60.331,60.331
				c8.32,8.341,21.824,8.341,30.165,0l22.208-22.208c11.072,5.824,22.592,10.603,34.475,14.357v31.339
				c0,11.797,9.536,21.333,21.333,21.333h85.333c11.797,0,21.333-9.536,21.333-21.333v-31.339
				c11.883-3.755,23.403-8.533,34.475-14.357l22.208,22.208c8.341,8.341,21.845,8.341,30.165,0l60.331-60.331
				c8.341-8.32,8.341-21.824,0-30.165l-22.187-22.208c5.824-11.072,10.603-22.613,14.357-34.475h31.317
				c11.797,0,21.333-9.536,21.333-21.333v-85.333C512,201.536,502.464,192,490.667,192z M256,384c-70.592,0-128-57.408-128-128
				s57.408-128,128-128s128,57.408,128,128S326.592,384,256,384z" fill="#eba904"/>
		</g>
	</g>
</g>
<g>
</g>
<g>
</g>
<g>
</g>
<g>
</g>
<g>
</g>
<g>
</g>
<g>
</g>
<g>
</g>
<g>
</g>
<g>
</g>
<g>
</g>
<g>
</g>
<g>
</g>
<g>
</g>
<g>
</g>
</svg>
